<?xml version="1.0" encoding="UTF-8"?>
<svg width="2005px" height="319px" viewBox="0 0 2005 319" version="1.1" xmlns="http://www.w3.org/2000/svg" xmlns:xlink="http://www.w3.org/1999/xlink">
    <!-- Generator: Sketch 52.6 (67491) - http://www.bohemiancoding.com/sketch -->
    <title>upvotes</title>
    <desc>Created with Sketch.</desc>
    <g id="Page-2" stroke="none" stroke-width="1" fill="none" fill-rule="evenodd">
        <g id="upvotes" transform="translate(1002.500000, 159.500000) scale(-1, 1) translate(-1002.500000, -159.500000) " fill="#113654">
            <path d="M1577.62,272.604 C1577.62,270.099 1574.66,268.777 1572.79,270.451 L1548.96,291.867 C1547.68,293.017 1547.68,295.023 1548.96,296.173 L1572.79,317.59 C1574.66,319.264 1577.62,317.942 1577.62,315.437 L1577.62,306.123 C1577.62,304.524 1578.92,303.228 1580.52,303.228 L1595.43,303.228 C1597.03,303.228 1598.33,301.932 1598.33,300.334 L1598.33,287.708 C1598.33,286.109 1597.03,284.813 1595.43,284.813 L1580.52,284.813 C1578.92,284.813 1577.62,283.517 1577.62,281.919 L1577.62,272.604 Z" id="Path"></path>
            <path d="M1634.62,18.9002 C1634.62,16.3953 1631.66,15.0729 1629.79,16.7472 L1605.96,38.1638 C1604.68,39.3138 1604.68,41.3197 1605.96,42.4697 L1629.79,63.886 C1631.66,65.561 1634.62,64.238 1634.62,61.733 L1634.62,52.4192 C1634.62,50.8206 1635.92,49.5247 1637.52,49.5247 L1652.43,49.5247 C1654.03,49.5247 1655.33,48.2287 1655.33,46.6301 L1655.33,34.0039 C1655.33,32.4053 1654.03,31.1094 1652.43,31.1094 L1637.52,31.1094 C1635.92,31.1094 1634.62,29.8135 1634.62,28.2149 L1634.62,18.9002 Z" id="Path"></path>
            <path d="M1402.92,201.398 C1402.92,197.599 1398.43,195.594 1395.6,198.133 L1359.46,230.614 C1357.51,232.358 1357.51,235.4 1359.46,237.145 L1395.6,269.625 C1398.43,272.165 1402.92,270.159 1402.92,266.36 L1402.92,252.234 C1402.92,249.809 1404.89,247.844 1407.31,247.844 L1429.94,247.844 C1432.36,247.844 1434.33,245.879 1434.33,243.454 L1434.33,224.305 C1434.33,221.88 1432.36,219.915 1429.94,219.915 L1407.31,219.915 C1404.89,219.915 1402.92,217.95 1402.92,215.525 L1402.92,201.398 Z" id="Path"></path>
            <path d="M1712.87,144.666 C1712.87,139.772 1707.08,137.189 1703.44,140.46 L1656.88,182.303 C1654.37,184.55 1654.37,188.469 1656.88,190.716 L1703.44,232.558 C1707.08,235.83 1712.87,233.246 1712.87,228.352 L1712.87,210.154 C1712.87,207.031 1715.41,204.499 1718.53,204.499 L1747.67,204.499 C1750.8,204.499 1753.33,201.967 1753.33,198.844 L1753.33,174.175 C1753.33,171.052 1750.8,168.52 1747.67,168.52 L1718.53,168.52 C1715.41,168.52 1712.87,165.988 1712.87,162.865 L1712.87,144.666 Z" id="Path"></path>
            <path d="M1458.2,54.9782 C1458.2,53.2696 1456.18,52.3677 1454.91,53.5097 L1438.65,68.117 C1437.78,68.902 1437.78,70.27 1438.65,71.054 L1454.91,85.662 C1456.18,86.804 1458.2,85.902 1458.2,84.194 L1458.2,77.841 C1458.2,76.75 1459.09,75.867 1460.18,75.867 L1470.35,75.867 C1471.44,75.867 1472.33,74.983 1472.33,73.892 L1472.33,65.28 C1472.33,64.19 1471.44,63.306 1470.35,63.306 L1460.18,63.306 C1459.09,63.306 1458.2,62.422 1458.2,61.332 L1458.2,54.9782 Z" id="Path"></path>
            <path d="M1981.87,124.218 C1981.87,121.439 1978.58,119.971 1976.51,121.829 L1950.06,145.591 C1948.65,146.867 1948.65,149.093 1950.06,150.369 L1976.51,174.131 C1978.58,175.989 1981.87,174.522 1981.87,171.743 L1981.87,161.408 C1981.87,159.634 1983.3,158.196 1985.08,158.196 L2001.63,158.196 C2003.4,158.196 2004.84,156.759 2004.84,154.985 L2004.84,140.976 C2004.84,139.202 2003.4,137.764 2001.63,137.764 L1985.08,137.764 C1983.3,137.764 1981.87,136.326 1981.87,134.553 L1981.87,124.218 Z" id="Path"></path>
            <path d="M1881.53,242.402 C1881.53,240.327 1879.07,239.232 1877.53,240.619 L1857.79,258.353 C1856.74,259.305 1856.74,260.966 1857.79,261.918 L1877.53,279.652 C1879.07,281.039 1881.53,279.944 1881.53,277.869 L1881.53,270.157 C1881.53,268.833 1882.6,267.76 1883.93,267.76 L1896.28,267.76 C1897.6,267.76 1898.67,266.687 1898.67,265.363 L1898.67,254.908 C1898.67,253.584 1897.6,252.511 1896.28,252.511 L1883.93,252.511 C1882.6,252.511 1881.53,251.438 1881.53,250.114 L1881.53,242.402 Z" id="Path"></path>
            <path d="M1866.39,28.0527 C1866.39,24.5523 1862.25,22.7045 1859.65,25.0442 L1826.34,54.9717 C1824.55,56.5788 1824.55,59.382 1826.34,60.989 L1859.65,90.916 C1862.25,93.256 1866.39,91.408 1866.39,87.908 L1866.39,74.892 C1866.39,72.658 1868.2,70.847 1870.44,70.847 L1891.28,70.847 C1893.52,70.847 1895.33,69.036 1895.33,66.802 L1895.33,49.1584 C1895.33,46.9245 1893.52,45.1136 1891.28,45.1136 L1870.44,45.1136 C1868.2,45.1136 1866.39,43.3026 1866.39,41.0688 L1866.39,28.0527 Z" id="Path"></path>
            <path d="M1083.35,269.948 C1083.35,267.973 1081.01,266.931 1079.54,268.251 L1060.76,285.134 C1059.75,286.04 1059.75,287.622 1060.76,288.528 L1079.54,305.411 C1081.01,306.731 1083.35,305.688 1083.35,303.714 L1083.35,296.371 C1083.35,295.111 1084.37,294.09 1085.63,294.09 L1097.39,294.09 C1098.65,294.09 1099.67,293.068 1099.67,291.808 L1099.67,281.854 C1099.67,280.594 1098.65,279.573 1097.39,279.573 L1085.63,279.573 C1084.37,279.573 1083.35,278.551 1083.35,277.291 L1083.35,269.948 Z" id="Path"></path>
            <path d="M774.351,42.2863 C774.351,40.3116 772.013,39.2692 770.544,40.5891 L751.757,57.472 C750.748,58.378 750.748,59.96 751.757,60.866 L770.544,77.749 C772.013,79.069 774.351,78.027 774.351,76.052 L774.351,68.71 C774.351,67.449 775.373,66.428 776.633,66.428 L788.391,66.428 C789.652,66.428 790.673,65.406 790.673,64.146 L790.673,54.1926 C790.673,52.9324 789.652,51.9108 788.391,51.9108 L776.633,51.9108 C775.373,51.9108 774.351,50.8893 774.351,49.6291 L774.351,42.2863 Z" id="Path"></path>
            <path d="M1296.51,66.476 C1296.51,63.474 1292.95,61.889 1290.72,63.896 L1262.15,89.568 C1260.62,90.946 1260.62,93.351 1262.15,94.729 L1290.72,120.401 C1292.95,122.408 1296.51,120.823 1296.51,117.821 L1296.51,106.656 C1296.51,104.739 1298.06,103.186 1299.98,103.186 L1317.86,103.186 C1319.77,103.186 1321.33,101.632 1321.33,99.716 L1321.33,84.581 C1321.33,82.665 1319.77,81.111 1317.86,81.111 L1299.98,81.111 C1298.06,81.111 1296.51,79.558 1296.51,77.642 L1296.51,66.476 Z" id="Path"></path>
            <path d="M604.622,272.699 C604.622,270.194 601.656,268.871 599.792,270.546 L575.96,291.962 C574.68,293.112 574.68,295.118 575.96,296.268 L599.792,317.685 C601.656,319.359 604.622,318.037 604.622,315.532 L604.622,306.218 C604.622,304.619 605.918,303.323 607.516,303.323 L622.432,303.323 C624.031,303.323 625.327,302.027 625.327,300.428 L625.327,287.802 C625.327,286.204 624.031,284.908 622.432,284.908 L607.516,284.908 C605.918,284.908 604.622,283.612 604.622,282.013 L604.622,272.699 Z" id="Path"></path>
            <path d="M377.925,201.398 C377.925,197.599 373.427,195.594 370.601,198.133 L334.456,230.614 C332.515,232.358 332.515,235.4 334.456,237.145 L370.601,269.625 C373.427,272.165 377.925,270.159 377.925,266.36 L377.925,252.234 C377.925,249.809 379.89,247.844 382.315,247.844 L404.937,247.844 C407.362,247.844 409.327,245.879 409.327,243.454 L409.327,224.305 C409.327,221.88 407.362,219.915 404.937,219.915 L382.315,219.915 C379.89,219.915 377.925,217.95 377.925,215.525 L377.925,201.398 Z" id="Path"></path>
            <path d="M484.874,35.6663 C484.874,30.7722 479.079,28.1888 475.439,31.4599 L428.875,73.303 C426.375,75.55 426.375,79.469 428.875,81.716 L475.439,123.558 C479.079,126.83 484.874,124.246 484.874,119.352 L484.874,101.154 C484.874,98.031 487.406,95.499 490.529,95.499 L519.672,95.499 C522.795,95.499 525.327,92.967 525.327,89.844 L525.327,65.175 C525.327,62.052 522.795,59.52 519.672,59.52 L490.529,59.52 C487.406,59.52 484.874,56.9882 484.874,53.8649 L484.874,35.6663 Z" id="Path"></path>
            <path d="M963.393,118.053 C963.393,114.552 959.249,112.705 956.645,115.044 L923.341,144.972 C921.553,146.579 921.553,149.382 923.341,150.989 L956.645,180.916 C959.249,183.256 963.393,181.408 963.393,177.908 L963.393,164.892 C963.393,162.658 965.204,160.847 967.438,160.847 L988.28,160.847 C990.52,160.847 992.33,159.036 992.33,156.802 L992.33,139.158 C992.33,136.924 990.52,135.114 988.28,135.114 L967.438,135.114 C965.204,135.114 963.393,133.303 963.393,131.069 L963.393,118.053 Z" id="Path"></path>
            <path d="M1198.39,163.053 C1198.39,159.552 1194.25,157.705 1191.65,160.044 L1158.34,189.972 C1156.55,191.579 1156.55,194.382 1158.34,195.989 L1191.65,225.916 C1194.25,228.256 1198.39,226.408 1198.39,222.908 L1198.39,209.892 C1198.39,207.658 1200.2,205.847 1202.44,205.847 L1223.28,205.847 C1225.52,205.847 1227.33,204.036 1227.33,201.802 L1227.33,184.158 C1227.33,181.924 1225.52,180.114 1223.28,180.114 L1202.44,180.114 C1200.2,180.114 1198.39,178.303 1198.39,176.069 L1198.39,163.053 Z" id="Path"></path>
            <path d="M846.916,229.475 C846.916,224.746 841.317,222.25 837.8,225.411 L792.812,265.838 C790.396,268.009 790.396,271.795 792.812,273.966 L837.8,314.393 C841.317,317.554 846.916,315.057 846.916,310.329 L846.916,292.747 C846.916,289.729 849.362,287.283 852.38,287.283 L880.536,287.283 C883.554,287.283 886,284.837 886,281.819 L886,257.985 C886,254.968 883.554,252.521 880.536,252.521 L852.38,252.521 C849.362,252.521 846.916,250.075 846.916,247.058 L846.916,229.475 Z" id="Path"></path>
            <path d="M655.799,137.015 C655.799,134.411 652.715,133.036 650.778,134.777 L625.998,157.045 C624.667,158.24 624.667,160.326 625.998,161.522 L650.778,183.789 C652.715,185.53 655.799,184.155 655.799,181.551 L655.799,171.866 C655.799,170.204 657.146,168.857 658.808,168.857 L674.317,168.857 C675.98,168.857 677.327,167.509 677.327,165.847 L677.327,152.719 C677.327,151.057 675.98,149.71 674.317,149.71 L658.808,149.71 C657.146,149.71 655.799,148.362 655.799,146.7 L655.799,137.015 Z" id="Path"></path>
            <path d="M218.799,263.015 C218.799,260.411 215.715,259.036 213.778,260.777 L188.998,283.045 C187.667,284.24 187.667,286.326 188.998,287.522 L213.778,309.789 C215.715,311.53 218.799,310.155 218.799,307.551 L218.799,297.866 C218.799,296.204 220.146,294.857 221.808,294.857 L237.317,294.857 C238.98,294.857 240.327,293.509 240.327,291.847 L240.327,278.719 C240.327,277.057 238.98,275.71 237.317,275.71 L221.808,275.71 C220.146,275.71 218.799,274.362 218.799,272.7 L218.799,263.015 Z" id="Path"></path>
            <path d="M30.7989,102.015 C30.7989,99.411 27.715,98.036 25.7778,99.777 L0.998,122.045 C-0.3327,123.24 -0.3327,125.326 0.998,126.522 L25.7778,148.789 C27.715,150.53 30.7989,149.155 30.7989,146.551 L30.7989,136.866 C30.7989,135.204 32.1463,133.857 33.8084,133.857 L49.3174,133.857 C50.9796,133.857 52.327,132.509 52.327,130.847 L52.327,117.719 C52.327,116.057 50.9796,114.71 49.3174,114.71 L33.8084,114.71 C32.1463,114.71 30.7989,113.362 30.7989,111.7 L30.7989,102.015 Z" id="Path"></path>
            <path d="M150.351,165.286 C150.351,163.312 148.013,162.269 146.544,163.589 L127.757,180.472 C126.748,181.378 126.748,182.96 127.757,183.866 L146.544,200.749 C148.013,202.069 150.351,201.027 150.351,199.052 L150.351,191.71 C150.351,190.449 151.373,189.428 152.633,189.428 L164.391,189.428 C165.652,189.428 166.673,188.406 166.673,187.146 L166.673,177.193 C166.673,175.932 165.652,174.911 164.391,174.911 L152.633,174.911 C151.373,174.911 150.351,173.889 150.351,172.629 L150.351,165.286 Z" id="Path"></path>
            <path d="M223.508,19.4765 C223.508,16.4738 219.952,14.8887 217.719,16.8957 L189.151,42.5677 C187.616,43.9463 187.616,46.3507 189.151,47.7292 L217.719,73.401 C219.952,75.408 223.508,73.823 223.508,70.821 L223.508,59.656 C223.508,57.739 225.061,56.1859 226.977,56.1859 L244.857,56.1859 C246.774,56.1859 248.327,54.6324 248.327,52.7162 L248.327,37.5811 C248.327,35.6649 246.774,34.1115 244.857,34.1115 L226.977,34.1115 C225.061,34.1115 223.508,32.5581 223.508,30.6418 L223.508,19.4765 Z" id="Path"></path>
            <path d="M1027.2,1.9782 C1027.2,0.2696 1025.18,-0.6323 1023.91,0.5097 L1007.65,15.1175 C1006.78,15.9019 1006.78,17.2701 1007.65,18.0545 L1023.91,32.6623 C1025.18,33.8043 1027.2,32.9024 1027.2,31.1938 L1027.2,24.8408 C1027.2,23.7505 1028.09,22.8666 1029.18,22.8666 L1039.35,22.8666 C1040.44,22.8666 1041.33,21.9826 1041.33,20.8923 L1041.33,12.2802 C1041.33,11.1898 1040.44,10.3059 1039.35,10.3059 L1029.18,10.3059 C1028.09,10.3059 1027.2,9.4219 1027.2,8.3316 L1027.2,1.9782 Z" id="Path"></path>
        </g>
    </g>
</svg>